<?xml version="1.0"?>
<svg xmlns="http://www.w3.org/2000/svg" xmlns:xlink="http://www.w3.org/1999/xlink" xmlns:svgjs="http://svgjs.com/svgjs" version="1.1" width="512" height="512" x="0" y="0" viewBox="0 0 512 512" style="enable-background:new 0 0 512 512" xml:space="preserve" class=""><g><g xmlns="http://www.w3.org/2000/svg"><path d="m466 87.987h-116.058c15.216-21.824 13.112-52.143-6.344-71.598-21.834-21.835-57.361-21.835-79.195 0-2.451 2.451-5.378 6-8.402 12.003-3.025-6.003-5.951-9.552-8.402-12.003-21.834-21.835-57.361-21.835-79.195 0-19.455 19.455-21.559 49.773-6.344 71.598h-116.06c-25.364 0-46 20.636-46 46v36c0 20.484 13.461 37.877 32 43.814v252.186c0 25.364 20.636 46 46 46h146 64 146c25.364 0 46-20.636 46-46v-252.186c18.539-5.938 32-23.331 32-43.814v-36c0-25.364-20.636-46-46-46zm-194 96h-32v-64h32zm3.764-109.544c4.942-28.425 10.633-34.794 11.266-35.427 4.679-4.679 10.825-7.018 16.971-7.018s12.292 2.339 16.971 7.018c9.357 9.358 9.357 24.583 0 33.941-.629.629-6.96 6.288-35.17 11.221-4.106.718-8.113 1.319-11.81 1.816.486-3.612 1.072-7.527 1.772-11.551zm-84.735-35.427c4.679-4.679 10.825-7.018 16.971-7.018s12.292 2.339 16.971 7.018c.629.629 6.288 6.96 11.221 35.169.718 4.106 1.319 8.114 1.816 11.811-3.612-.487-7.528-1.073-11.551-1.773-28.425-4.942-34.794-10.633-35.427-11.266-9.358-9.357-9.358-24.583-.001-33.941zm-159.029 94.971c0-7.72 6.28-14 14-14h162v64h-160-2c-7.72 0-14-6.28-14-14zm32 332v-250h144v264h-130c-7.72 0-14-6.28-14-14zm176 14v-264h32v264zm208-14c0 7.72-6.28 14-14 14h-130v-264h144zm32-296c0 7.72-6.28 14-14 14h-2-160v-64h162c7.72 0 14 6.28 14 14z" fill="#2e8aa1" data-original="#000000" style="" class=""/></g></g></svg>
