<?xml version="1.0" encoding="utf-8"?>
<!-- Generator: Adobe Illustrator 24.2.1, SVG Export Plug-In . SVG Version: 6.00 Build 0)  -->
<svg version="1.1" id="Calque_1" xmlns:svgjs="http://svgjs.com/svgjs"
	 xmlns="http://www.w3.org/2000/svg" xmlns:xlink="http://www.w3.org/1999/xlink" x="0px" y="0px" viewBox="0 0 512 512"
	 style="enable-background:new 0 0 512 512;" xml:space="preserve">
<style type="text/css">
	.st0{fill:#2E8AA1;}
</style>
<g>
	<g>
		<g>
			<path class="st0" d="M311.86,242.97L311.86,242.97c24.16-17.81,38.59-46.22,38.59-75.99c0-52.07-42.37-94.44-94.45-94.44
				c-52.08,0-94.44,42.37-94.44,94.44c0,30.18,14.04,57.86,38.52,75.95C103.76,276.98,88.73,394.5,86.41,429.7
				c-0.16,2.53,0.72,5.01,2.45,6.86c1.73,1.85,4.14,2.9,6.67,2.9h320.93c2.53,0,4.95-1.05,6.68-2.9c1.73-1.85,2.62-4.33,2.45-6.86
				C423.28,394.57,408.21,277.23,311.86,242.97z"/>
			<path class="st0" d="M436.94,247.4c15.94-11.76,25.45-30.51,25.45-50.17c0-34.36-27.97-62.32-62.33-62.32
				c-9.86,0-19.15,2.36-27.45,6.46c1.82,8.26,2.79,16.81,2.79,25.62c0,24.71-7.83,48.67-21.84,68.57
				c55.16,34.7,79.09,95.4,89.46,141.54h62.95c1.66,0,3.26-0.69,4.41-1.91c1.14-1.21,1.72-2.86,1.61-4.52
				C510.46,347.45,500.52,270.01,436.94,247.4z"/>
			<path class="st0" d="M158.26,235.56c-14.01-19.79-21.67-43.49-21.67-68.57c0-8.81,0.99-17.35,2.8-25.62
				c-8.3-4.09-17.59-6.46-27.45-6.46c-34.37,0-62.33,27.97-62.33,62.32c0,19.93,9.26,38.2,25.43,50.13
				C11.47,269.85,1.54,347.42,0.01,370.66c-0.11,1.67,0.48,3.31,1.62,4.52c1.15,1.21,2.75,1.9,4.41,1.9h62.91
				C79.29,330.95,103.18,270.2,158.26,235.56z"/>
		</g>
	</g>
</g>
</svg>
